{"title":"Joyful Noise 2012 Cam XviD Feel-Free.","uid":7016987,"size":1046896640,"categoryP":"video","categoryS":"movies","magnet":"?xt=urn:btih:24dbb70200f87ff1d3d23480b41c99b6d15e158c&amp;dn=Joyful+Noise+2012+Cam+XviD+Feel-Free.&amp;tr=udp%3A%2F%2Ftracker.openbittorrent.com%3A80&amp;tr=udp%3A%2F%2Fopen.demonii.com%3A1337&amp;tr=udp%3A%2F%2Ftracker.coppersurfer.tk%3A6969&amp;tr=udp%3A%2F%2Fexodus.desync.com%3A6969","seeders":0,"leechers":0,"uploader":"moviesp2p","files":1,"time":1328697942,"description":"\nGenre:Comedy | Music\nLanguage:English\nIMDb:http://www.imdb.com/title/tt1710396/\nSource:HOKNOWS INC Thanks!\nEncoder:Tony\n \nFormat                                   : AVI\nFormat/Info                              : Audio Video Interleave\nFile size                                : 998 MiB\nDuration                                 : 1h 52mn\nOverall bit rate                         : 1 239 Kbps\n\nVideo\nID                                       : 0\nFormat                                   : MPEG-4 Visual\nFormat profile                           : Advanced Simple@L5\nFormat settings, BVOP                    : 1\nFormat settings, QPel                    : No\nFormat settings, GMC                     : No warppoints\nFormat settings, Matrix                  : Default (H.263)\nCodec ID                                 : XVID\nCodec ID/Hint                            : XviD\nDuration                                 : 1h 52mn\nBit rate                                 : 1 093 Kbps\nWidth                                    : 640 pixels\nHeight                                   : 296 pixels\nDisplay aspect ratio                     : 2.2:1\nFrame rate                               : 29.970 fps\nColor space                              : YUV\nChroma subsampling                       : 4:2:0\nBit depth                                : 8 bits\nScan type                                : Progressive\nCompression mode                         : Lossy\nBits/(Pixel*Frame)                       : 0.192\nStream size                              : 880 MiB (88%)\nWriting library                          : XviD 1.2.1 (UTC 2008-12-04)\n\nAudio\nID                                       : 1\nFormat                                   : AC-3\nFormat/Info                              : Audio Coding 3\nMode extension                           : CM (complete main)\nCodec ID                                 : 2000\nDuration                                 : 1h 20mn\nBit rate mode                            : Constant\nBit rate                                 : 192 Kbps\nChannel(s)                               : 2 channels\nChannel positions                        : Front: L R\nSampling rate                            : 48.0 KHz\nBit depth                                : 16 bits\nCompression mode                         : Lossy\nStream size                              : 110 MiB (11%)\nAlignment                                : Aligned on interleaves\nInterleave, duration                     : 47 ms (1.40 video frame)\nInterleave, preload duration             : 512 ms","torrent":{"xt":"urn:btih:24dbb70200f87ff1d3d23480b41c99b6d15e158c","amp;dn":"Joyful+Noise+2012+Cam+XviD+Feel-Free.","amp;tr":["udp%3A%2F%2Ftracker.openbittorrent.com%3A80","udp%3A%2F%2Fopen.demonii.com%3A1337","udp%3A%2F%2Ftracker.coppersurfer.tk%3A6969","udp%3A%2F%2Fexodus.desync.com%3A6969"],"infoHash":"24dbb70200f87ff1d3d23480b41c99b6d15e158c","infoHashBuffer":{"type":"Buffer","data":[36,219,183,2,0,248,127,241,211,210,52,128,180,28,153,182,209,94,21,140]},"announce":[],"urlList":[]}}